<?xml version="1.0" encoding="utf-8"?>
<!-- Generator: Adobe Illustrator 21.0.0, SVG Export Plug-In . SVG Version: 6.00 Build 0)  -->
<svg version="1.1" baseProfile="tiny" id="Capa_1" xmlns="http://www.w3.org/2000/svg" xmlns:xlink="http://www.w3.org/1999/xlink"
	 x="0px" y="0px" viewBox="0 0 600 600" xml:space="preserve">
<g>
	<linearGradient id="SVGID_1_" gradientUnits="userSpaceOnUse" x1="808.5" y1="632.5" x2="808.5" y2="632.5">
		<stop  offset="0" style="stop-color:#FF6166"/>
		<stop  offset="0.2328" style="stop-color:#E50033"/>
	</linearGradient>
	<path fill="url(#SVGID_1_)" d="M808.5,632.5"/>
	<linearGradient id="SVGID_2_" gradientUnits="userSpaceOnUse" x1="809.5" y1="-701.5" x2="809.5" y2="-701.5">
		<stop  offset="0" style="stop-color:#FF6166"/>
		<stop  offset="0.2328" style="stop-color:#E50033"/>
	</linearGradient>
	<path fill="url(#SVGID_2_)" d="M809.5-701.5"/>
	<linearGradient id="SVGID_3_" gradientUnits="userSpaceOnUse" x1="58.5" y1="632.5" x2="58.5" y2="632.5">
		<stop  offset="0" style="stop-color:#FF6166"/>
		<stop  offset="0.2328" style="stop-color:#E50033"/>
	</linearGradient>
	<path fill="url(#SVGID_3_)" d="M58.5,632.5"/>
	<g>
		<path id="cuerpo" fill="#33322E" d="M588.3,435.37c0,144.37-117.28,99.49-261.96,99.49S64.38,579.74,64.38,435.37
			s117.28-261.4,261.96-261.4S588.3,291,588.3,435.37z"/>
		<ellipse id="XMLID_42_" fill="#FFBBA9" cx="241.18" cy="144.19" rx="14.31" ry="20.65"/>
		<ellipse id="XMLID_39_" fill="#FFBBA9" cx="404.82" cy="144.19" rx="14.31" ry="20.65"/>
		<ellipse id="XMLID_38_" fill="#FF9580" cx="241.18" cy="144.19" rx="9.68" ry="13.96"/>
		<ellipse id="XMLID_37_" fill="#FF9580" cx="404.82" cy="144.19" rx="9.68" ry="13.96"/>
		<path id="XMLID_166_" fill="#FFBBA9" d="M251.4,131.72c0,0-39.25,133.7-26.98,153.32s49.06,36.39,102.22,36.39
			s93.22-16.76,97.31-36.39s-28.62-157.41-28.62-157.41l-13.9-49.06H263.67L251.4,131.72z"/>
		<path id="XMLID_165_" fill="#FF9580" d="M306.46,320.58c0,0-62.83-5.42-58.95-49.58c3.88-44.16,17.82-176.63,29.39-169.27
			c11.57,7.36,36.97,26.49,56.81,12.81c-27.8-11.99-51.79-28.18-58.33-28.54c-6.54-0.35-16.9,7.82-19.9,24.18
			c-3,16.35-15.19,62.24-15.19,62.24s-28.15,95.04-15.89,112.62C236.68,302.63,264.49,315.65,306.46,320.58z"/>
		<path id="XMLID_61_" fill="#F5ECE7" d="M408.67,247.02c0,0,0.47,1.06,1.14,2.95c0.67,1.9,1.59,4.62,2.33,8.02
			c0.77,3.38,1.38,7.46,1.25,11.95c-0.06,2.24-0.29,4.58-0.84,6.92c-0.52,2.35-1.33,4.69-2.4,6.93c-1.09,2.23-2.49,4.31-4.07,6.15
			c-1.55,1.88-3.37,3.44-5.18,4.8c-0.93,0.65-1.83,1.32-2.78,1.84c-0.92,0.57-1.85,1.06-2.78,1.5c-1.83,0.9-3.63,1.58-5.3,2.11
			c-1.65,0.6-3.23,0.91-4.6,1.25c-1.39,0.27-2.6,0.49-3.6,0.61c-2.01,0.23-3.16,0.3-3.16,0.3s1.03-0.54,2.84-1.37
			c0.9-0.42,1.96-1,3.2-1.57c0.6-0.32,1.24-0.66,1.92-1.03c0.68-0.35,1.38-0.72,2.09-1.14c0.72-0.41,1.47-0.83,2.2-1.33
			c0.74-0.48,1.53-0.93,2.28-1.49c0.76-0.53,1.55-1.06,2.29-1.68c0.77-0.58,1.51-1.22,2.25-1.87c1.45-1.33,2.88-2.77,4.1-4.38
			c1.22-1.61,2.37-3.32,3.24-5.17c0.91-1.84,1.6-3.78,2.16-5.76c0.55-1.98,0.91-4,1.17-5.99c0.51-3.99,0.53-7.85,0.51-11.2
			c-0.04-1.69-0.08-3.23-0.12-4.6c-0.04-1.39-0.08-2.59-0.11-3.59C408.67,248.18,408.67,247.02,408.67,247.02z"/>
		<path id="XMLID_36_" fill="#362A3A" d="M369.46,95.82c14.82,6.05,22.44,29.46,23.77,33.71c0.73,2.33,4.37-1.02,5.9-4.29
			c1.53-3.27-1.26-4.66-1.66-9.47c-0.41-4.8-5.83-15.74-3.99-30.66s-6.34-31.89-9.51-37c-2.15,8.69-12.07,8.87-16.05,12.98
			c-0.1-5.93-3.41-8.95-0.72-16.76c-6.13,8.18-36.35-3.92-43.85,15.43c-2.86-5.93-1.28-16.49,1.36-19.76
			c-9.95,11.58-47.43,5.32-57.58,31.21c-4.7-4.29-6.95-4.7-6.75-8.59c-12.98,12.27-3.5,45.44-11.47,64.45
			c3.48,3.23,4.11,4.65,4.11,4.65s6.41-21.26,7.22-26.44s7.09-15.13,19.15-12.13s24.6,26.17,45.32,25.62
			C345.44,118.23,354.64,89.77,369.46,95.82z"/>
		<g id="XMLID_49_">
			<path id="XMLID_50_" fill="#362A3A" d="M275.39,72.03c4.98-15.8,28.35-13.9,38.71-20.99"/>
			<path id="XMLID_40_" fill="#DDDAD8" d="M275.39,72.03c9.35-12.07,21.6-19.92,38.71-20.99C298.77,54.87,287.01,63.1,275.39,72.03z
				"/>
		</g>
		<g id="XMLID_62_">
			<path id="XMLID_65_" fill="#362A3A" d="M256.89,100.33c0.82-2.73-0.27-21.81,3.82-29.71"/>
			<path id="XMLID_41_" fill="#DDDAD8" d="M256.89,100.33c0.66-10.89-1.33-19.7,3.82-29.71C260.37,74.25,256.23,99.98,256.89,100.33
				z"/>
		</g>
		<g id="XMLID_81_">
			<path id="XMLID_82_" fill="#362A3A" d="M325.2,63.85c0,0,5.52-15.26,33.32-10.63"/>
			<path id="XMLID_44_" fill="#DDDAD8" d="M325.2,63.85c11.53-8.63,15.48-16.96,33.32-10.63C343.2,51.34,337.31,58.84,325.2,63.85z"
				/>
		</g>
		<g id="XMLID_91_">
			<path id="XMLID_92_" fill="#362A3A" d="M323.17,116.15c12.6-7.99,15.89-26.38,15.89-33.43"/>
			<path id="XMLID_86_" fill="#DDDAD8" d="M323.17,116.15c6.34-11.71,13.83-18.99,15.89-33.43
				C340.8,99.78,332.04,104.8,323.17,116.15z"/>
		</g>
		
			<path id="XMLID_148_" fill="none" stroke="#DB9B8B" stroke-width="4.214" stroke-linecap="round" stroke-linejoin="round" stroke-miterlimit="10" d="
			M309.18,231.36c4.09-2.46,8.32-3.96,15.62-3.96c7.3,0,10.98,1.79,14.26,3.96"/>
		<g id="XMLID_17_">
			<path id="XMLID_175_" fill="#FFBBA9" d="M74.32,393.26c0,0,50.65-10.34,98.39,7.98c0,17.2-0.91,32.41-9.71,45.61
				C154.21,460.05,66.68,508.08,74.32,393.26z"/>
			<path id="XMLID_16_" fill="#FF9580" d="M74.32,393.26c0,0,50.65-10.34,98.39,7.98c-65.57-17.39-95.21,13.31-98.08,21.03
				C72.89,410.78,73.83,405.39,74.32,393.26z"/>
		</g>
		<g id="XMLID_18_">
			<path id="XMLID_15_" fill="#FFBBA9" d="M87.71,457.34c-38.33-47.7,48.9-55.39,82.24-44.92c11.67,3.67,16.7,4.11,21.33,7.26
				c0,1.44,44.71,15.69,61.79,23.21c9.6,4.23,21.54,12.2,22.39,25.09c1.61,24.5,1.15,46.5-14.08,46.84
				c-15.23,0.34-0.92-18.98-29.07-17.77c-23.4,1-41.03-2.7-41.03-2.7S126.05,505.04,87.71,457.34z"/>
			<path id="XMLID_172_" fill="#FF9580" d="M129.73,419.56c47.4-15.05,52.01-3.44,107.88,17.25
				C192.13,433.79,197.81,415.57,129.73,419.56z"/>
			<path id="XMLID_19_" fill="#F5ECE7" d="M103.05,451.63c9.97,12.39,23.34,21.48,38.63,26.39
				C123.72,477.6,109.38,468.21,103.05,451.63z"/>
		</g>
		<g id="XMLID_24_">
			<path id="XMLID_26_" fill="#FFBBA9" d="M578.59,393.26c0,0-50.65-10.34-98.39,7.98c0,17.2,0.91,32.41,9.71,45.61
				C498.7,460.05,586.23,508.08,578.59,393.26z"/>
			<path id="XMLID_25_" fill="#FF9580" d="M578.59,393.26c0,0-50.65-10.34-98.39,7.98c65.57-17.39,95.21,13.31,98.08,21.03
				C580.02,410.78,579.08,405.39,578.59,393.26z"/>
		</g>
		<g id="XMLID_20_">
			<path id="XMLID_23_" fill="#FFBBA9" d="M565.2,457.34c38.33-47.7-48.9-55.39-82.24-44.92c-11.67,3.67-16.7,4.11-21.33,7.26
				c0,1.44-44.71,15.69-61.79,23.21c-9.6,4.23-21.54,12.2-22.39,25.09c-1.61,24.5-1.15,46.5,14.08,46.84
				c15.23,0.34,0.92-18.98,29.07-17.77c23.4,1,41.03-2.7,41.03-2.7S526.86,505.04,565.2,457.34z"/>
			<path id="XMLID_22_" fill="#FF9580" d="M523.18,419.56c-47.4-15.05-52.01-3.44-107.88,17.25
				C460.78,433.79,455.1,415.57,523.18,419.56z"/>
			<path id="XMLID_21_" fill="#F5ECE7" d="M549.86,451.63c-9.97,12.39-23.34,21.48-38.63,26.39
				C529.19,477.6,543.53,468.21,549.86,451.63z"/>
		</g>
		<g id="ojos">
			<g id="XMLID_151_">
				<ellipse id="XMLID_153_" fill="#362A3A" cx="297.81" cy="183.78" rx="6.54" ry="9.81"/>
				<ellipse id="XMLID_152_" fill="#362A3A" cx="352.59" cy="183.78" rx="6.54" ry="9.81"/>
			</g>
			
				<line id="XMLID_150_" fill="#362A3A" stroke="#362A3A" stroke-width="5.6186" stroke-linecap="round" stroke-linejoin="round" stroke-miterlimit="10" x1="287.11" y1="173.97" x2="307.55" y2="178.88"/>
			
				<line id="XMLID_149_" fill="#362A3A" stroke="#362A3A" stroke-width="5.6186" stroke-linecap="round" stroke-linejoin="round" stroke-miterlimit="10" x1="342.37" y1="178.88" x2="362.81" y2="173.97"/>
		</g>
		<g>
			<path id="XMLID_183_" fill="#7E757F" stroke="#454444" stroke-width="2.8093" stroke-miterlimit="10" d="M100.88,401.94H36.01
				v-8.51c0-2.68,2.17-4.85,4.85-4.85h55.18c2.68,0,4.85,2.17,4.85,4.85V401.94z"/>
			<path id="XMLID_182_" fill="#7E757F" stroke="#454444" stroke-width="2.8093" stroke-miterlimit="10" d="M104.99,401.94H31.9
				c-4.28,0-7.75,3.47-7.75,7.75v5.88h88.59v-5.88C112.74,405.41,109.27,401.94,104.99,401.94z"/>
			<polygon id="XMLID_181_" fill="#A38369" stroke="#444242" stroke-width="2.8093" stroke-miterlimit="10" points="104.92,440.04 
				31.97,440.04 37.19,486.03 99.7,486.03 			"/>
			
				<polygon id="XMLID_180_" fill="#D6D6D6" stroke="#454444" stroke-width="2.8093" stroke-linecap="round" stroke-linejoin="round" stroke-miterlimit="10" points="
				107.7,415.57 29.19,415.57 31.97,440.04 104.92,440.04 			"/>
			
				<polygon id="XMLID_179_" fill="#D6D6D6" stroke="#454444" stroke-width="2.8093" stroke-linecap="round" stroke-linejoin="round" stroke-miterlimit="10" points="
				37.19,486.03 40.64,516.49 96.25,516.49 99.7,486.03 			"/>
			<path id="XMLID_178_" fill="#9DAFAD" stroke="#454444" stroke-width="2.8093" stroke-miterlimit="10" d="M112.24,526.68H24.65
				c-2.8,0-5.09-2.29-5.09-5.09v-1.67c0-2.8,2.29-5.09,5.09-5.09h87.59c2.8,0,5.09,2.29,5.09,5.09v1.67
				C117.33,524.39,115.04,526.68,112.24,526.68z"/>
			<path id="XMLID_84_" fill="#FFFFFF" d="M57.37,410.16h-24c-0.78,0-1.4-0.63-1.4-1.4s0.63-1.4,1.4-1.4h24c0.78,0,1.4,0.63,1.4,1.4
				S58.15,410.16,57.37,410.16z"/>
			<path id="XMLID_87_" fill="#685433" d="M68.38,460.86c0-2.19-3.11-3.28-4.93-1.73l-6.79,5.76c-0.8-1.44-1.26-3.03-1.26-4.73
				c0-6.12,5.84-11.08,13.05-11.08c5.62,0,10.39,3.02,12.23,7.25l-7.37,6.26C71.49,464.14,68.38,463.05,68.38,460.86z"/>
			<path id="XMLID_90_" fill="#685433" d="M56.66,467.7l6.79-5.76c1.82-1.55,4.93-0.45,4.93,1.73c0,2.18,3.11,3.28,4.93,1.73
				l7.37-6.26c0.52,1.19,0.82,2.48,0.82,3.83c0,6.12-5.84,11.08-13.05,11.08C63.23,474.05,58.75,471.45,56.66,467.7z"/>
		</g>
		<g id="XMLID_33_">
			
				<rect id="XMLID_34_" x="209.74" y="514.82" fill="#ECECEC" stroke="#444242" stroke-width="2.8093" stroke-linecap="round" stroke-linejoin="round" stroke-miterlimit="10" width="235.91" height="11.86"/>
		</g>
		<path id="XMLID_32_" fill="#ECECEC" stroke="#444242" stroke-width="2.8093" stroke-miterlimit="10" d="M451.01,502.69H204.38
			c-9.27,0-16.86-7.59-16.86-16.86V353.28c0-9.27,7.59-16.86,16.86-16.86h246.63c9.27,0,16.86,7.59,16.86,16.86v132.56
			C467.87,495.11,460.28,502.69,451.01,502.69z"/>
		<path id="XMLID_64_" fill="#D3D1D0" d="M461.72,343.48c-17.98,59.62-87.78,156.97-260.48,155.94c-1.22-0.01,1.48,1.64,4.27,1.64
			h241.09c10.79,0,19.63-7.2,19.63-17.99V356.05C466.23,350.47,465.5,347.06,461.72,343.48z"/>
		<path id="XMLID_31_" fill="#DBDBDB" stroke="#444242" stroke-width="2.8093" stroke-miterlimit="10" d="M371.01,526.68H282.7
			l8.22-85.23c0.91-9.43,8.02-16.57,16.5-16.57h38.88c8.48,0,15.6,7.15,16.5,16.57L371.01,526.68z"/>
		
			<circle id="XMLID_30_" fill="#ECECEC" stroke="#444242" stroke-width="2.8093" stroke-miterlimit="10" cx="326.86" cy="460.13" r="12.47"/>
		<path id="XMLID_35_" fill="#FFFFFF" d="M200.44,397.2c-1.16,0-2.11-0.94-2.11-2.11v-31.28c0-9.93,8.08-18.01,18.01-18.01h29.32
			c1.16,0,2.11,0.94,2.11,2.11s-0.94,2.11-2.11,2.11h-29.32c-7.61,0-13.8,6.19-13.8,13.8v31.28
			C202.55,396.26,201.61,397.2,200.44,397.2z"/>
		
			<path id="XMLID_95_" fill="none" stroke="#F7F7F8" stroke-width="1.4047" stroke-linecap="round" stroke-linejoin="round" stroke-miterlimit="10" d="
			M344.26,383.22c0.25-2.65,0.15-9.26-8.55-9.51"/>
		
			<path id="XMLID_55_" fill="none" stroke="#F7F7F8" stroke-width="1.4047" stroke-linecap="round" stroke-linejoin="round" stroke-miterlimit="10" d="
			M331.82,374.72c0,0-1.98,0.41-3.82,2.24"/>
		<g id="XMLID_60_">
			<path id="XMLID_245_" fill="#444242" d="M342.27,397.18c0.17,1.09-0.05,2.11-0.42,3.11c-0.74,1.96-1.91,3.61-3.55,4.92
				c-0.72,0.57-1.5,1.01-2.39,1.28c-0.94,0.28-1.87,0.29-2.8,0c-0.66-0.21-1.32-0.44-1.97-0.66c-0.53-0.17-1.06-0.31-1.62-0.36
				c-0.66-0.06-1.3,0.03-1.94,0.2c-0.62,0.16-1.21,0.39-1.8,0.62c-0.46,0.18-0.92,0.35-1.4,0.46c-0.88,0.2-1.71,0.05-2.51-0.35
				c-0.74-0.38-1.36-0.92-1.91-1.53c-0.63-0.71-1.16-1.49-1.62-2.31c-1.35-2.37-2.26-4.91-2.82-7.58c-0.22-1.04-0.35-2.09-0.43-3.14
				c-0.16-2.18,0.32-4.2,1.52-6.03c1.15-1.76,2.7-3.05,4.66-3.83c0.94-0.37,1.91-0.57,2.92-0.6c0.78-0.02,1.5,0.16,2.19,0.52
				c0.34,0.18,0.68,0.38,1.01,0.57c0.39,0.22,0.79,0.42,1.22,0.54c0.59,0.16,1.19,0.15,1.79,0.06c0.77-0.12,1.49-0.4,2.2-0.74
				c0.47-0.22,0.94-0.44,1.41-0.66c0.88-0.41,1.8-0.45,2.73-0.27c1.02,0.19,1.92,0.62,2.74,1.25c0.69,0.53,1.28,1.16,1.82,1.83
				c0.01,0.01,0.02,0.03,0.03,0.05c-0.36,0.25-0.7,0.53-1.02,0.84c-1.04,1.04-1.7,2.29-1.97,3.73c-0.23,1.24-0.19,2.47,0.15,3.68
				c0.38,1.39,1.17,2.52,2.29,3.42c0.44,0.36,0.9,0.66,1.4,0.94C342.21,397.14,342.25,397.16,342.27,397.18z"/>
			<path id="XMLID_244_" fill="#444242" d="M335.2,373.96c0.02,0.18,0.04,0.34,0.06,0.5c0.12,0.96,0.05,1.91-0.21,2.84
				c-0.37,1.35-1.11,2.46-2.16,3.37c-0.99,0.86-2.13,1.44-3.37,1.84c-0.02,0.01-0.04,0.01-0.06,0.01c-0.22-1.12-0.22-2.22,0.08-3.32
				c0.32-1.17,0.91-2.18,1.77-3.04c1.06-1.06,2.34-1.75,3.76-2.17C335.1,373.98,335.14,373.97,335.2,373.96z"/>
		</g>
		<path id="mesa" fill="#C69C6D" stroke="#444242" stroke-width="4.1561" stroke-miterlimit="10" d="M579.89,556.6H21.11
			c-4.95,0-9-4.05-9-9v-11.91c0-4.95,4.05-9,9-9h558.79c4.95,0,9,4.05,9,9v11.91C588.9,552.54,584.85,556.6,579.89,556.6z"/>
	</g>
</g>
</svg>
