<?xml version="1.0" encoding="utf-8"?>
<!-- Generator: Adobe Illustrator 21.0.0, SVG Export Plug-In . SVG Version: 6.00 Build 0)  -->
<svg version="1.1" baseProfile="tiny" id="Capa_1" xmlns="http://www.w3.org/2000/svg" xmlns:xlink="http://www.w3.org/1999/xlink"
	 x="0px" y="0px" viewBox="0 0 490 154" xml:space="preserve">
<g>
	<path fill="#FFFFFF" d="M24.24,20.37h22.12c3.02,0,6.01,1.23,8.99,3.7c3.24,3.09,4.86,6.62,4.86,10.59v0.61
		c0,4.74-2.24,8.77-6.73,12.08c6.91,6.47,10.37,13.99,10.37,22.56v1.05c0,9.78-4.28,18.02-12.85,24.72
		c-5.41,3.86-11.24,5.79-17.49,5.79h-1.66c-4.82,0-9.89-1.53-15.23-4.58c-1.73-1.1-3.59-2.56-5.57-4.36
		c-4.74-5.11-7.12-9.6-7.12-13.46v-1.38c0-2.72,1.03-5.55,3.09-8.5c0.77-0.85,1.42-1.51,1.93-1.99c-1.62-1.66-2.43-4.67-2.43-9.05
		c0-4.63,1.08-12.16,3.26-22.56c0.59-3.49,1.23-5.92,1.93-7.28c1.69-3.35,4.54-5.77,8.55-7.28C21.81,20.59,23.14,20.37,24.24,20.37z
		 M8.3,55.01c0,4.82,1.14,8.4,3.42,10.76v0.17c-2.35,1.1-4.19,3.22-5.52,6.34c-0.52,1.43-0.77,2.91-0.77,4.41
		c0,4.23,2.67,8.79,8,13.68c4.08,3.35,8.53,5.48,13.35,6.4c1.66,0.26,3.03,0.39,4.14,0.39h0.5c0.22,0,0.42,0.04,0.61,0.11
		c0.18-0.07,0.37-0.11,0.55-0.11h0.06c8.35,0,15.59-3.6,21.74-10.81c4.05-5.15,6.07-10.98,6.07-17.49V68.7
		c0-9.6-4.19-17.51-12.58-23.72v-0.06c2.28-0.66,4.06-1.73,5.35-3.2c2.39-2.35,3.59-5.2,3.59-8.55c0-4.71-2.28-8.35-6.84-10.92
		c-1.47-0.81-3.88-1.21-7.23-1.21H25.73c-3.75,0-6.4,0.53-7.94,1.6c-2.54,1.43-4.38,3.68-5.52,6.73c-0.37,1.66-1.14,5.63-2.32,11.92
		C8.85,46.57,8.3,51.15,8.3,55.01z M21.98,23.84h21.57c2.68,0,4.84,1.49,6.45,4.47c0.37,0.96,0.55,1.95,0.55,2.98
		c0,2.76-1.4,4.95-4.19,6.57c-0.96,0.48-1.95,0.72-2.98,0.72H28.77c-0.41,2.83-0.61,4.36-0.61,4.58h0.06
		c0.26-0.07,0.48-0.11,0.66-0.11h2.15c7.5,0,13.83,3.38,18.98,10.15c2.79,3.9,4.19,8.42,4.19,13.57c0,8.5-3.9,15.32-11.7,20.47
		c-3.72,2.17-7.67,3.26-11.86,3.26c-7.43,0-13.74-3.07-18.92-9.21c-1.95-2.65-2.92-4.8-2.92-6.45v-0.5c0-2.21,0.97-4.1,2.92-5.68
		c1.4-0.99,2.92-1.49,4.58-1.49c2.91,0,5.17,1.56,6.79,4.69c1.77,2.57,4.17,3.86,7.23,3.86h0.5c3.16,0,5.76-1.64,7.78-4.91
		c0.63-1.4,0.94-2.74,0.94-4.03c0-3.38-1.62-6.05-4.86-8c-1.32-0.66-2.7-0.99-4.14-0.99c-2.57,0-4.89,1.05-6.95,3.14
		c-1.43,1.1-2.89,1.66-4.36,1.66h-0.33c-2.87,0-5.09-1.45-6.68-4.36c-0.41-1.07-0.61-2.04-0.61-2.92c0-0.81,1.23-9.53,3.7-26.15
		c0.44-1.51,1.42-2.87,2.92-4.08C19.55,24.25,20.8,23.84,21.98,23.84z M32.02,64.56c1.95,0,3.29,1.1,4.03,3.31
		c0.07,0.29,0.11,0.59,0.11,0.88c0,1.84-1.01,3.18-3.03,4.03c-0.33,0.07-0.66,0.11-0.99,0.11h-0.22c-1.91,0-3.24-0.92-3.97-2.76
		c-0.41-0.59-0.86-1.21-1.38-1.88c2.17-2.35,3.6-3.53,4.3-3.53C31.27,64.61,31.65,64.56,32.02,64.56z M30.81,70.3
		c0.59,1.25,1.18,1.88,1.77,1.88h0.5c0.81,0,1.34-0.57,1.6-1.71c-0.26-1.07-0.79-1.6-1.6-1.6h-0.11
		C32.22,68.86,31.5,69.34,30.81,70.3z"/>
	<path fill="#FFFFFF" d="M101.87,20.37h1.71c9.27,0,17.76,3.29,25.49,9.88c2.43,2.24,3.84,3.99,4.25,5.24
		c1.1,1.99,1.66,4.3,1.66,6.95c0,2.24-0.61,4.54-1.82,6.9h0.06c2.94,1.84,5.04,4.56,6.29,8.17c0.37,1.58,0.55,2.72,0.55,3.42v12.63
		c0,5.08-1.77,9.95-5.3,14.62c-2.39,2.68-4.27,4.45-5.63,5.3c-2.91,2.06-5.72,3.61-8.44,4.63c-5.66,2.24-11.25,3.37-16.77,3.37
		h-2.04c-8.42,0-16.29-2.81-23.61-8.44c-3.31-2.87-5.74-5.33-7.28-7.39c-5.48-7.36-8.22-15.3-8.22-23.83v-1.82
		c0-6.58,1.73-13,5.19-19.25c1.21-2.06,2.79-4.25,4.74-6.57c3.6-3.75,5.9-5.85,6.9-6.29c1.88-1.4,3.59-2.5,5.13-3.31
		C90.37,21.77,96.09,20.37,101.87,20.37z M101.48,21.08h-0.55c-9.16,0-17.45,3.46-24.88,10.37c-7.87,7.69-11.81,16.94-11.81,27.75
		c0,12.58,5.33,22.97,16,31.17c6.51,4.6,13.7,6.9,21.57,6.9c9.6,0,18.11-2.67,25.54-8c6.18-4.82,9.27-11.05,9.27-18.7V60.2
		c0-5.08-2.41-8.86-7.23-11.37c-0.63-0.18-0.94-0.31-0.94-0.39c2.06-2.46,3.09-5.2,3.09-8.22c0-4.16-2.21-7.87-6.62-11.14
		c-6.77-5.33-14.22-8-22.34-8h-0.5c-0.11,0-0.2-0.02-0.28-0.06C101.7,21.07,101.59,21.08,101.48,21.08z M99.71,23.84h1.21
		c8.75,0,16.37,3.35,22.84,10.04c1.07,1.51,1.6,2.96,1.6,4.36c0,2.91-1.42,5.15-4.25,6.73c-0.96,0.48-1.97,0.72-3.03,0.72h-0.17
		c-2.24,0-4.19-0.92-5.85-2.76c-3.38-2.91-7.32-4.36-11.81-4.36c-6.36,0-11.49,3-15.39,8.99c-1.73,2.91-2.59,6.12-2.59,9.65
		c0,6.44,2.83,11.66,8.5,15.67c2.87,1.88,5.99,2.81,9.38,2.81h0.55c5.15,0,9.67-1.38,13.57-4.14c0.92-0.88,1.38-1.71,1.38-2.48V64.5
		h-14.01c-2.8,0-5-1.45-6.62-4.36c-0.29-0.59-0.5-1.43-0.61-2.54c0-2.68,1.58-4.87,4.74-6.57c0.92-0.26,1.75-0.39,2.48-0.39h21.57
		c2.79,0,5,1.47,6.62,4.41c0.37,1.03,0.55,2.01,0.55,2.92v10.65c0,9.82-6.44,16.64-19.31,20.47c-3.53,0.92-7.17,1.38-10.92,1.38
		c-11.03,0-20.16-5.06-27.36-15.17c-3.46-5.48-5.19-11.42-5.19-17.82v-0.72c0-11,4.86-20.14,14.57-27.42
		C87.65,25.68,93.5,23.84,99.71,23.84z M102.09,45.36c2.54,0,4.97,0.79,7.28,2.37v0.11h-6.45c-3.57,0-6.68,1.6-9.32,4.8
		c-1.62,2.17-2.43,4.28-2.43,6.34v1.05c0,2.8,1.25,5.44,3.75,7.94c2.24,2.21,5.2,3.31,8.88,3.31h6.12v0.11
		c-2.57,0.99-5.22,1.49-7.94,1.49h-0.17c-3.53,0-6.57-1.25-9.1-3.75c-2.8-2.83-4.19-6.14-4.19-9.93c0-5.44,2.57-9.65,7.72-12.63
		C97.97,45.77,99.92,45.36,102.09,45.36z"/>
	<path fill="#FFFFFF" d="M178.11,20.37h1.82c8.31,0,16.09,2.74,23.34,8.22c3.9,3.38,6.51,6.07,7.83,8.05
		c5.3,7.21,7.94,14.99,7.94,23.34v1.82c0,6.66-1.73,13.09-5.19,19.31c-1.21,2.06-2.8,4.25-4.74,6.57c-3.35,3.46-5.65,5.57-6.9,6.34
		c-6.95,4.97-14.38,7.45-22.29,7.45h-1.82c-8.5,0-16.4-2.83-23.72-8.5c-3.79-3.31-6.4-6.03-7.83-8.17
		c-5.08-7.14-7.61-14.8-7.61-23.01v-1.82c0-8.61,2.81-16.61,8.44-24c3.05-3.64,5.74-6.27,8.05-7.89
		C162.46,22.94,170.02,20.37,178.11,20.37z M177.78,21.08h-0.55c-8.02,0-15.43,2.65-22.23,7.94c-9.71,8.02-14.57,18.08-14.57,30.18
		c0,11.07,4.17,20.49,12.52,28.25c7.21,6.47,15.32,9.71,24.33,9.71h0.22c0.18,0,0.37,0.04,0.55,0.11c0.18-0.07,0.39-0.11,0.61-0.11
		h0.28c7.39,0,14.34-2.3,20.85-6.9c3.57-2.72,6.53-5.76,8.88-9.1c4.63-6.47,6.95-13.7,6.95-21.68v-0.66
		c0-12.21-5.24-22.45-15.72-30.73c-6.55-4.67-13.54-7.01-20.96-7.01h-0.61c-0.11,0-0.2-0.02-0.28-0.06
		C177.98,21.07,177.89,21.08,177.78,21.08z M176.07,23.84h1.21c10.34,0,19.09,4.74,26.26,14.23c3.9,5.63,5.85,12.03,5.85,19.2
		c0,11.44-5.06,20.8-15.17,28.08c-5.33,3.42-11.2,5.13-17.6,5.13c-11.33,0-20.51-5.06-27.53-15.17c-3.53-5.41-5.3-11.31-5.3-17.71
		v-0.83c0-10.34,4.3-19.05,12.91-26.15C162.48,26.11,168.94,23.84,176.07,23.84z M158.53,57.11c0,6.51,2.83,11.77,8.5,15.78
		c2.83,1.88,5.94,2.81,9.32,2.81h0.5c6.1,0,11.11-2.85,15.01-8.55c1.84-2.98,2.76-6.2,2.76-9.65V57c0-6.62-2.96-11.94-8.88-15.94
		c-2.76-1.66-5.81-2.48-9.16-2.48c-6,0-10.94,2.67-14.84,8C159.59,49.77,158.53,53.29,158.53,57.11z M178.11,45.36
		c5.08,0,9.07,2.59,11.97,7.78c0.81,1.91,1.21,3.7,1.21,5.35v0.33c0,0.11,0.02,0.22,0.06,0.33c-0.04,0.07-0.06,0.17-0.06,0.28v0.33
		c0,4.49-2.26,8.33-6.79,11.53c-2.02,1.07-4.17,1.6-6.45,1.6c-3.57,0-6.6-1.25-9.1-3.75c-2.8-2.87-4.19-5.94-4.19-9.21v-1.6
		c0-3.71,1.75-7.12,5.24-10.21C172.36,46.28,175.06,45.36,178.11,45.36z M168.24,60.97c0,4.49,2.11,7.93,6.34,10.32
		c1.4,0.59,2.72,0.88,3.97,0.88h0.88c3.71,0,6.79-2.02,9.21-6.07c0.74-1.58,1.1-3.33,1.1-5.24c0-4.38-2.02-7.76-6.07-10.15
		c-1.4-0.7-2.96-1.05-4.69-1.05c-3.97,0-7.12,1.89-9.43,5.68C168.68,56.96,168.24,58.84,168.24,60.97z"/>
	<path fill="#FFFFFF" d="M231.63,20.37h16.88c5.19,0,10.21,1.86,15.06,5.57c7.25,6.22,10.87,14.14,10.87,23.78
		c0,7.61-2.43,14.33-7.28,20.14v0.06c3.79,6.36,6.03,10.32,6.73,11.86c0.59,1.69,0.88,3.16,0.88,4.41v1.16
		c0,3.02-1.14,6.01-3.42,8.99c-3.24,3.42-6.8,5.13-10.7,5.13h-0.94c-3.38,0-6.55-1.29-9.49-3.86c-1.25-1.21-2.39-2.74-3.42-4.58
		c-0.33-0.63-0.5-0.96-0.5-0.99h-0.11c-0.44,1.8-1.84,3.81-4.19,6.01c-2.91,2.28-5.81,3.42-8.72,3.42h-1.66
		c-2.32,0-4.84-0.88-7.56-2.65c-1.51-1.14-2.68-2.35-3.53-3.64c-1.73-2.61-2.59-5.08-2.59-7.39V34.22c0-3.02,1.23-6.03,3.7-9.05
		c2.13-2.06,4.05-3.37,5.74-3.92C229.26,20.66,230.67,20.37,231.63,20.37z M219.44,33.55v51.2c0,5.41,2.56,9.29,7.67,11.64
		c1.47,0.52,2.76,0.77,3.86,0.77h0.33c0.11,0,0.2,0.04,0.28,0.11c0.07-0.07,0.17-0.11,0.28-0.11h0.39c3.02,0,5.81-1.32,8.39-3.97
		c2.06-2.32,3.09-5.08,3.09-8.28v-1.99h0.17c3.16,5.55,5.2,8.92,6.12,10.1c2.61,2.83,5.68,4.25,9.21,4.25c3.9,0,7.23-1.75,9.99-5.24
		c1.43-2.32,2.15-4.65,2.15-7.01c0-2.5-0.86-5.04-2.59-7.61c-3.79-6.4-5.68-9.64-5.68-9.71c5.26-5.48,7.89-12.1,7.89-19.86
		c0-8.64-3.24-15.83-9.71-21.57c-2.02-1.62-3.75-2.68-5.19-3.2c-2.35-1.36-6.09-2.04-11.2-2.04h-11.42c-3.68,0-6.27,0.52-7.78,1.54
		C221.51,25.04,219.44,28.7,219.44,33.55z M229.86,23.84h16.33c3.9,0,7.71,1.62,11.42,4.86c4.78,4.71,7.17,10.43,7.17,17.16
		c0,7.8-3.13,14.11-9.38,18.92c5.96,9.86,9.1,15.23,9.43,16.11c0.18,0.81,0.28,1.51,0.28,2.1c0,3.16-1.54,5.46-4.63,6.9
		c-0.96,0.41-1.88,0.61-2.76,0.61c-2.98,0-5.31-1.62-7.01-4.86c-6.44-10.92-9.97-16.85-10.59-17.76h-2.59v15.34
		c0,3.13-1.67,5.43-5.02,6.9c-1.03,0.26-1.82,0.39-2.37,0.39c-3.05,0-5.33-1.54-6.84-4.63c-0.33-0.81-0.5-1.66-0.5-2.54v-52.3
		c0-2.87,1.51-5.09,4.52-6.68C228.21,24.01,229.05,23.84,229.86,23.84z M237.53,38.57v14.57h7.28c1.73,0,2.87-0.55,3.42-1.66
		c1.18-1.47,1.77-3.27,1.77-5.41v-0.44c0-2.79-0.97-5-2.92-6.62c-0.51-0.29-1.14-0.44-1.88-0.44H237.53z M243.88,45.36h2.15
		c0.26,0,0.48,0.83,0.66,2.48c0,1.07-0.22,1.88-0.66,2.43h-2.15c-0.11,0-0.17-0.04-0.17-0.11v-4.69
		C243.75,45.4,243.8,45.36,243.88,45.36z"/>
	<path fill="#FFFFFF" d="M287.52,20.37h14.62c8.53,0,16.5,2.81,23.89,8.44c3.42,2.91,6.05,5.57,7.89,8
		c5.22,7.28,7.83,15.01,7.83,23.17v1.88c0,9.05-3.11,17.4-9.32,25.05c-3.46,3.68-5.72,5.81-6.79,6.4
		c-7.25,5.44-15.08,8.17-23.5,8.17h-14.62c-2.43,0-5-0.88-7.72-2.65c-2.68-1.8-4.58-4.56-5.68-8.28c-0.29-1.21-0.44-2.19-0.44-2.92
		V34.22c0-2.5,0.88-5.08,2.65-7.72c1.95-2.68,4.58-4.56,7.89-5.63C285.71,20.53,286.82,20.37,287.52,20.37z M275.16,33.72V84.7
		c0,3.79,1.29,6.88,3.86,9.27c2.06,1.8,4.1,2.83,6.12,3.09c0.92,0.15,2.21,0.22,3.86,0.22h8.17c6.8,0,11.79-0.63,14.95-1.88
		c1.1-0.18,3.55-1.29,7.34-3.31c1.84-0.99,4.23-2.81,7.17-5.46c7.8-7.69,11.7-16.75,11.7-27.2v-0.61c0-11.07-4.38-20.56-13.13-28.47
		c-4.86-4.08-9.73-6.75-14.62-8c-2.91-0.88-7.45-1.32-13.63-1.32h-7.72c-3.97,0-6.73,0.61-8.28,1.82
		C277.09,25.24,275.16,28.86,275.16,33.72z M285.59,23.84h13.85c10.56,0,19.48,4.74,26.76,14.23c3.94,5.63,5.9,12.01,5.9,19.14
		c0,9.01-3.2,16.79-9.6,23.34c-3.49,3.31-6.49,5.5-8.99,6.57c-4.12,2.24-9.54,3.37-16.28,3.37h-10.7c-3.97,0-6.57-1.82-7.78-5.46
		c-0.15-0.66-0.22-1.25-0.22-1.77V31.02c0-2.91,1.47-5.09,4.41-6.57C283.75,24.05,284.63,23.84,285.59,23.84z M293.2,38.57V75.7
		h5.74c6.62,0,11.9-3,15.83-8.99c1.73-2.91,2.59-5.9,2.59-8.99v-1.16c0-5.74-2.63-10.61-7.89-14.62c-2.94-2.24-6.79-3.37-11.53-3.37
		H293.2z M299.65,45.36c4.19,0,7.5,1.21,9.93,3.64c2.98,2.76,4.47,6.14,4.47,10.15c0,5.04-2.37,9.08-7.12,12.14
		c-2.02,1.07-4.21,1.6-6.57,1.6h-0.77c-0.11,0-0.17-0.04-0.17-0.11V45.47C299.43,45.4,299.51,45.36,299.65,45.36z M302.91,49.77
		v22.34c1.25-0.18,2.45-0.57,3.59-1.16c0.92-0.33,2.15-1.4,3.7-3.2c1.54-2.02,2.32-4.14,2.32-6.34v-0.99c0-3.9-2.06-7.12-6.18-9.65
		C304.82,50.1,303.68,49.77,302.91,49.77z"/>
	<path fill="#FFFFFF" d="M379.82,20.37h1.82c8.31,0,16.09,2.74,23.34,8.22c3.9,3.38,6.51,6.07,7.83,8.05
		c5.3,7.21,7.94,14.99,7.94,23.34v1.82c0,6.66-1.73,13.09-5.19,19.31c-1.21,2.06-2.8,4.25-4.74,6.57c-3.35,3.46-5.65,5.57-6.9,6.34
		c-6.95,4.97-14.38,7.45-22.29,7.45h-1.82c-8.5,0-16.4-2.83-23.72-8.5c-3.79-3.31-6.4-6.03-7.83-8.17
		c-5.08-7.14-7.61-14.8-7.61-23.01v-1.82c0-8.61,2.81-16.61,8.44-24c3.05-3.64,5.74-6.27,8.05-7.89
		C364.17,22.94,371.73,20.37,379.82,20.37z M379.49,21.08h-0.55c-8.02,0-15.43,2.65-22.23,7.94c-9.71,8.02-14.57,18.08-14.57,30.18
		c0,11.07,4.17,20.49,12.52,28.25c7.21,6.47,15.32,9.71,24.33,9.71h0.22c0.18,0,0.37,0.04,0.55,0.11c0.18-0.07,0.39-0.11,0.61-0.11
		h0.28c7.39,0,14.34-2.3,20.85-6.9c3.57-2.72,6.53-5.76,8.88-9.1c4.63-6.47,6.95-13.7,6.95-21.68v-0.66
		c0-12.21-5.24-22.45-15.72-30.73c-6.55-4.67-13.54-7.01-20.96-7.01h-0.61c-0.11,0-0.2-0.02-0.28-0.06
		C379.69,21.07,379.6,21.08,379.49,21.08z M377.78,23.84h1.21c10.34,0,19.09,4.74,26.26,14.23c3.9,5.63,5.85,12.03,5.85,19.2
		c0,11.44-5.06,20.8-15.17,28.08c-5.33,3.42-11.2,5.13-17.6,5.13c-11.33,0-20.51-5.06-27.53-15.17c-3.53-5.41-5.3-11.31-5.3-17.71
		v-0.83c0-10.34,4.3-19.05,12.91-26.15C364.19,26.11,370.64,23.84,377.78,23.84z M360.23,57.11c0,6.51,2.83,11.77,8.5,15.78
		c2.83,1.88,5.94,2.81,9.32,2.81h0.5c6.11,0,11.11-2.85,15.01-8.55c1.84-2.98,2.76-6.2,2.76-9.65V57c0-6.62-2.96-11.94-8.88-15.94
		c-2.76-1.66-5.81-2.48-9.16-2.48c-6,0-10.94,2.67-14.84,8C361.3,49.77,360.23,53.29,360.23,57.11z M379.82,45.36
		c5.08,0,9.07,2.59,11.97,7.78c0.81,1.91,1.21,3.7,1.21,5.35v0.33c0,0.11,0.02,0.22,0.06,0.33c-0.04,0.07-0.06,0.17-0.06,0.28v0.33
		c0,4.49-2.26,8.33-6.79,11.53c-2.02,1.07-4.17,1.6-6.45,1.6c-3.57,0-6.6-1.25-9.1-3.75c-2.8-2.87-4.19-5.94-4.19-9.21v-1.6
		c0-3.71,1.75-7.12,5.24-10.21C374.06,46.28,376.76,45.36,379.82,45.36z M369.94,60.97c0,4.49,2.11,7.93,6.34,10.32
		c1.4,0.59,2.72,0.88,3.97,0.88h0.88c3.71,0,6.79-2.02,9.21-6.07c0.74-1.58,1.1-3.33,1.1-5.24c0-4.38-2.02-7.76-6.07-10.15
		c-1.4-0.7-2.96-1.05-4.69-1.05c-3.97,0-7.12,1.89-9.43,5.68C370.38,56.96,369.94,58.84,369.94,60.97z"/>
	<path fill="#FFFFFF" d="M446.63,20.37h16.28c2.39,0,4.93,0.88,7.61,2.65c2.72,1.95,4.62,4.65,5.68,8.11
		c0.29,1.43,0.44,2.46,0.44,3.09v1.49c0,3.42-1.51,6.73-4.52,9.93c-2.24,1.95-4.28,3.09-6.12,3.42l3.2,1.99
		c5.19,3.75,8.79,8.81,10.81,15.17c0.66,2.54,0.99,4.91,0.99,7.12v1.1c0,8.75-3.88,16.09-11.64,22.01
		c-4.78,3.35-9.97,5.02-15.56,5.02h-20.41c-2.35,0-4.89-0.88-7.61-2.65c-2.72-1.99-4.6-4.63-5.63-7.94c-0.33-1.47-0.5-2.56-0.5-3.26
		v-1.6c0-3.27,1.45-6.49,4.36-9.65c2.68-2.35,5.3-3.68,7.83-3.97c0.59-0.07,1.05-0.11,1.38-0.11h0.5c0.11,0,0.17-0.06,0.17-0.17
		c-0.48-0.07-2.13-1.21-4.97-3.42c-2.76-2.72-4.32-4.58-4.69-5.57c-1.58-2.17-2.85-5.04-3.81-8.61c-0.51-2.02-0.77-4.05-0.77-6.07
		v-1.16c0-8.17,3.53-15.21,10.59-21.13C435.32,22.3,440.78,20.37,446.63,20.37z M421.14,46.3c0,6.22,2.24,11.9,6.73,17.05
		c5.15,5.19,10.92,7.78,17.32,7.78h7.23c0.44,0,0.74,0.33,0.88,0.99c0,0.29-0.22,0.55-0.66,0.77h-18.37c-4.01,0-7.08,1.09-9.21,3.26
		c-2.61,2.43-3.92,5.43-3.92,8.99c0,4.34,2,7.83,6.01,10.48c1.73,1.1,4.32,1.66,7.78,1.66h15.01c5.3,0,9.2-0.57,11.7-1.71
		c6.07-2.5,10.59-6.71,13.57-12.63c1.58-3.27,2.37-6.86,2.37-10.76c0-8.97-4.01-16.2-12.03-21.68c-4.01-2.43-8.37-3.64-13.08-3.64
		h-6.68c-0.26-0.11-0.39-0.35-0.39-0.72c0-0.4,0.29-0.66,0.88-0.77h14.51c5.11,0,8.86-2.34,11.25-7.01
		c0.77-1.58,1.16-3.27,1.16-5.08v-0.22c0-4.27-2-7.74-6.01-10.43c-1.66-1.07-4.3-1.6-7.94-1.6h-10.43c-5.48,0-9.42,0.59-11.81,1.77
		c-5.92,2.35-10.45,6.57-13.57,12.63C421.91,38.78,421.14,42.4,421.14,46.3z M444.31,23.84h15.61c2.87,0,5.09,1.58,6.68,4.74
		c0.26,0.92,0.39,1.75,0.39,2.48v0.22c0,2.98-1.53,5.24-4.58,6.79c-0.85,0.33-1.69,0.5-2.54,0.5h-14.45c-3.13,0-5.15,1.43-6.07,4.3
		c-0.07,0.37-0.11,0.79-0.11,1.27c0,2.46,1.16,4.19,3.48,5.19c0.55,0.22,1.18,0.33,1.88,0.33h6.51c5.52,0,10.26,1.99,14.23,5.96
		c4.01,4.01,6.01,8.92,6.01,14.73c0,7.43-3.57,13.35-10.7,17.76c-2.83,1.58-6.38,2.37-10.65,2.37H432.5c-3.86,0-6.44-1.71-7.72-5.13
		c-0.18-0.81-0.28-1.51-0.28-2.1v-0.44c0-2.68,1.36-4.8,4.08-6.34c0.88-0.51,2.19-0.77,3.92-0.77h18.59c2.43,0,4.21-1.36,5.35-4.08
		c0.07-0.44,0.11-0.79,0.11-1.05v-0.22c0-0.04,0.04-0.06,0.11-0.06l-0.11-0.17v-0.22c0-2.17-1.07-3.84-3.2-5.02
		c-0.63-0.37-1.69-0.55-3.2-0.55h-6.34c-6.11,0-11.33-2.81-15.67-8.44c-2.43-3.79-3.64-7.61-3.64-11.48v-0.55
		c0-6.95,3.18-12.62,9.54-16.99C437.32,24.86,440.74,23.84,444.31,23.84z"/>
</g>
<g>
	<path fill="#FFBDBD" d="M200,145.68h-18.2V119h8.08v19.64H200V145.68z"/>
	<path fill="#FFBDBD" d="M230.2,145.68h-9.16l-0.96-3.12h-9.6l-0.96,3.12h-9.16L210.2,119h10.16L230.2,145.68z M217.92,135.52
		l-2.64-8.6l-2.64,8.6H217.92z"/>
	<path fill="#FFBDBD" d="M268.8,145.68h-9.16l-0.96-3.12h-9.6l-0.96,3.12h-9.16L248.8,119h10.16L268.8,145.68z M256.52,135.52
		l-2.64-8.6l-2.64,8.6H256.52z"/>
	<path fill="#FFBDBD" d="M278.32,145.68h-8.08V119h14.24c3.01,0,5.37,0.87,7.06,2.62c1.69,1.75,2.54,3.93,2.54,6.54
		c0,2.59-0.85,4.75-2.54,6.5s-4.05,2.62-7.06,2.62h-6.16V145.68z M283.44,130.24c0.72,0,1.31-0.18,1.76-0.54
		c0.45-0.36,0.68-0.87,0.68-1.54c0-0.69-0.23-1.22-0.68-1.58c-0.45-0.36-1.04-0.54-1.76-0.54h-5.12v4.2H283.44z"/>
	<path fill="#FFBDBD" d="M314.92,145.68h-18.2V119h8.08v19.64h10.12V145.68z"/>
	<path fill="#FFBDBD" d="M326.24,145.68h-8.08V119h8.08V145.68z"/>
	<path fill="#FFBDBD" d="M343.8,146.16c-4.21,0-7.71-1.29-10.5-3.86c-2.79-2.57-4.18-5.89-4.18-9.94c0-4.08,1.39-7.4,4.16-9.96
		c2.77-2.56,6.28-3.84,10.52-3.84c3.2,0,5.78,0.75,7.74,2.24s3.42,3.33,4.38,5.52l-6.96,3.24c-0.35-1.07-1-1.98-1.96-2.74
		c-0.96-0.76-2.03-1.14-3.2-1.14c-1.92,0-3.48,0.64-4.68,1.92c-1.2,1.28-1.8,2.87-1.8,4.76c0,1.89,0.6,3.48,1.8,4.76
		c1.2,1.28,2.76,1.92,4.68,1.92c1.17,0,2.24-0.38,3.2-1.14c0.96-0.76,1.61-1.67,1.96-2.74l6.96,3.2c-0.43,0.99-0.96,1.9-1.6,2.74
		s-1.44,1.66-2.4,2.46c-0.96,0.8-2.14,1.43-3.54,1.9C346.98,145.93,345.46,146.16,343.8,146.16z"/>
	<path fill="#FFBDBD" d="M385,145.68h-9.16l-0.96-3.12h-9.6l-0.96,3.12h-9.16L365,119h10.16L385,145.68z M372.72,135.52l-2.64-8.6
		l-2.64,8.6H372.72z"/>
	<path fill="#FFBDBD" d="M398.48,146.16c-4.21,0-7.71-1.29-10.5-3.86c-2.79-2.57-4.18-5.89-4.18-9.94c0-4.08,1.39-7.4,4.16-9.96
		c2.77-2.56,6.28-3.84,10.52-3.84c3.2,0,5.78,0.75,7.74,2.24s3.42,3.33,4.38,5.52l-6.96,3.24c-0.35-1.07-1-1.98-1.96-2.74
		c-0.96-0.76-2.03-1.14-3.2-1.14c-1.92,0-3.48,0.64-4.68,1.92c-1.2,1.28-1.8,2.87-1.8,4.76c0,1.89,0.6,3.48,1.8,4.76
		c1.2,1.28,2.76,1.92,4.68,1.92c1.17,0,2.24-0.38,3.2-1.14c0.96-0.76,1.61-1.67,1.96-2.74l6.96,3.2c-0.43,0.99-0.96,1.9-1.6,2.74
		s-1.44,1.66-2.4,2.46c-0.96,0.8-2.14,1.43-3.54,1.9C401.66,145.93,400.13,146.16,398.48,146.16z"/>
	<path fill="#FFBDBD" d="M421.2,145.68h-8.08V119h8.08V145.68z"/>
	<path fill="#FFBDBD" d="M449.1,142.3c-2.79,2.57-6.26,3.86-10.42,3.86s-7.63-1.29-10.42-3.86c-2.79-2.57-4.18-5.89-4.18-9.94
		c0-4.05,1.39-7.37,4.18-9.94c2.79-2.57,6.26-3.86,10.42-3.86s7.63,1.29,10.42,3.86c2.79,2.57,4.18,5.89,4.18,9.94
		C453.28,136.41,451.89,139.73,449.1,142.3z M434.06,137.12c1.19,1.28,2.73,1.92,4.62,1.92c1.89,0,3.43-0.64,4.62-1.92
		c1.19-1.28,1.78-2.87,1.78-4.76c0-1.89-0.59-3.48-1.78-4.76c-1.19-1.28-2.73-1.92-4.62-1.92c-1.89,0-3.43,0.64-4.62,1.92
		c-1.19,1.28-1.78,2.87-1.78,4.76C432.28,134.25,432.87,135.84,434.06,137.12z M446.84,111l-6.2,5.76h-4.8l4.8-5.76H446.84z"/>
	<path fill="#FFBDBD" d="M481.84,145.68h-7.76l-9.84-13.52v13.52h-8.08V119h8.32l9.28,12.64V119h8.08V145.68z"/>
</g>
</svg>
